<svg width="47" height="60" viewBox="0 0 47 60" fill="none" xmlns="http://www.w3.org/2000/svg">
<g clip-path="url(#clip0_1_8380)">
<path d="M41.125 0C42.6831 0 44.1775 0.790176 45.2793 2.1967C46.381 3.60322 47 5.51088 47 7.5V55.4738C46.9999 55.8448 46.9137 56.2074 46.7521 56.5158C46.5905 56.8242 46.3609 57.0644 46.0923 57.2062C45.8237 57.3479 45.5283 57.3847 45.2433 57.312C44.9583 57.2392 44.6966 57.0602 44.4914 56.7975L36.1107 46.0988C35.5599 45.3954 34.8129 45.0002 34.0339 45H5.875C4.31685 45 2.82253 44.2098 1.72075 42.8033C0.618973 41.3968 0 39.4891 0 37.5V7.5C0 5.51088 0.618973 3.60322 1.72075 2.1967C2.82253 0.790176 4.31685 0 5.875 0L41.125 0Z" fill="white"/>
</g>
<defs>
<clipPath id="clip0_1_8380">
<rect width="47" height="60" fill="white" transform="matrix(-1 0 0 1 47 0)"/>
</clipPath>
</defs>
</svg>
