<svg width="115" height="47" viewBox="0 0 115 47" fill="none" xmlns="http://www.w3.org/2000/svg">
<path d="M0 38.6286V30.7795H114.962V46.4777H0V38.6286ZM7.64665 40.9696L7.72521 39.7302L11.1295 39.5925L14.5339 39.4548L14.6124 38.7112L14.691 37.9401H11.2867C9.42737 37.9401 7.82996 37.8299 7.7514 37.6922C7.64665 37.5545 7.67283 37.2516 7.7514 37.0037C7.88233 36.6181 8.45845 36.5631 11.5223 36.5631C15.2671 36.5631 15.529 36.4804 15.2409 35.4064C15.1362 34.9657 14.7172 34.9106 11.3914 34.9106C6.28491 34.9106 6.07542 35.1309 6.23254 39.9781C6.3111 41.9059 6.38966 42.3466 6.75628 42.4292C7.41096 42.5669 7.5419 42.3466 7.64665 40.9696ZM23.3066 38.7663V34.9106H21.7353V38.5735C21.7353 40.6115 21.8139 42.3466 21.9186 42.4292C21.9972 42.5394 22.3638 42.622 22.7043 42.622H23.3066V38.7663ZM36.1383 39.4548V36.5631H40.7472V34.9106H29.8533V36.5631H34.567V42.3466H36.1383V39.4548ZM48.7081 39.4548C48.7081 37.3067 48.7867 36.5631 49.0485 36.5631C49.2318 36.5631 50.4364 37.6922 51.7196 39.0693C54.2074 41.6856 55.0716 42.3466 56.1452 42.3466C57.926 42.3466 58.3973 41.3827 58.3973 37.6647V34.9106H56.8261V40.6941H56.1191C55.5691 40.6941 54.7835 40.0332 52.6623 37.8024C50.2793 35.2962 49.7818 34.9106 49.0485 34.9106C47.4249 34.9106 47.1369 35.5716 47.1369 39.1794V42.3466H48.7081V39.4548ZM75.419 41.6581V40.9696H71.4385C66.9082 40.9696 66.2535 40.8594 66.2535 40.1158C66.2535 39.6201 66.5154 39.5925 70.8362 39.5925H75.419V37.9401H66.2535V36.5631H75.419V34.9106H70.7053C66.0178 34.9106 65.9654 34.9106 65.3369 35.5991C64.7346 36.205 64.6823 36.4804 64.6823 38.5735C64.6823 40.5014 64.7608 41.0246 65.2322 41.6305L65.7559 42.3466H75.419V41.6581ZM91.7598 41.4928C92.1264 41.0246 92.4406 40.4738 92.4406 40.2535C92.4406 39.5925 91.7074 38.2981 91.2622 38.1053C91.0265 38.0227 89.2196 37.9401 87.2294 37.9401C83.6156 37.9401 82.8823 37.7473 83.1966 36.9486C83.3013 36.6457 84.2179 36.5631 87.6222 36.5631H91.9169V34.9106H87.5174C83.9298 34.9106 83.0133 34.9932 82.5419 35.3513C81.6777 35.9847 81.3373 37.0313 81.7301 37.9952C82.2538 39.3447 83.118 39.5925 87.0461 39.5925C90.6599 39.5925 91.4717 39.8404 90.4766 40.6115C90.11 40.8869 88.8792 40.9696 85.7105 40.9696H81.442V42.3466H91.0789L91.7598 41.4928ZM108.258 41.4928C108.624 41.0246 108.939 40.4738 108.939 40.2535C108.939 39.5925 108.205 38.2981 107.76 38.1053C107.524 38.0227 105.718 37.9401 103.727 37.9401C100.113 37.9401 99.3802 37.7473 99.6945 36.9486C99.7992 36.6457 100.716 36.5631 104.12 36.5631H108.415V34.9106H103.989C99.9825 34.9106 99.5112 34.9657 98.935 35.4614C97.6257 36.5355 97.9661 38.7112 99.5112 39.2896C99.9825 39.4548 101.894 39.5925 103.727 39.5925C107.158 39.5925 107.943 39.8404 106.974 40.6115C106.608 40.8869 105.377 40.9696 102.208 40.9696H97.9399V42.3466H107.577L108.258 41.4928Z" fill="#FFCD00"/>
<path d="M0.116969 28.6147C0.0645946 28.4219 0.0384075 21.9774 0.0645946 14.2385L0.143156 0.192784H7.47556V21.5367H14.1533V28.9727H7.1875C2.081 28.9452 0.221718 28.8625 0.116969 28.6147ZM15.2008 14.4863V0.0275406L18.9455 0.110162L22.6641 0.192784V28.835L18.9455 28.8901L15.2008 28.9452V14.4863ZM23.7116 28.6422C23.633 28.4494 23.6068 21.9774 23.633 14.2936L23.7116 0.275406L29.9965 0.247865L36.2814 0.192784L36.36 3.71798L36.4385 7.21563H31.1749V9.00577C31.1749 10.2451 31.2797 10.7959 31.5154 10.8234C31.6725 10.8234 32.7723 10.8785 33.9246 10.8785L36.0195 10.9336L36.0981 14.4588L36.1767 17.9565H31.1749V28.9727H27.5087C24.8114 28.9727 23.7901 28.8901 23.7116 28.6422ZM37.5122 28.7248C37.2765 28.5596 37.198 25.0619 37.2503 14.3486L37.3289 0.192784L43.9543 0.110162L50.5534 0.0275406V7.21563H44.7922V10.7684L47.3586 10.851L49.8987 10.9336L49.9773 14.4588L50.0559 17.9565H44.7922V19.8843C44.7922 21.2338 44.897 21.8121 45.1327 21.8121C45.2898 21.8397 46.5992 21.8397 48.0133 21.8397H50.5534V28.9727L44.1899 28.9452C40.6809 28.9452 37.6693 28.835 37.5122 28.7248ZM55.9741 28.7799C55.8694 28.6973 55.7908 23.74 55.7908 17.7637V6.94023H51.6009V0.0550812L59.5356 0.110162L67.4441 0.192784L67.4965 3.58028L67.5227 6.94023H63.1232V28.9727H59.6404C57.7025 28.9727 56.0527 28.8901 55.9741 28.7799ZM68.9368 28.7524C68.6749 28.5596 68.6225 25.5026 68.6749 14.3486L68.7535 0.192784L72.2364 0.110162L75.6931 0V28.9727H72.4982C70.7175 28.9727 69.1201 28.8625 68.9368 28.7524ZM77.0024 14.5139V0.0550812L82.1875 0.110162L87.3464 0.192784L88.1058 6.47204C88.551 9.91461 88.97 12.7237 89.0485 12.7237C89.1271 12.7237 89.5984 10.0799 90.0698 6.88515C90.5412 3.6629 90.9864 0.798677 91.0649 0.523271C91.1697 0.0826217 91.5887 0.0550812 96.0667 0.110162L100.964 0.192784V28.835L97.507 28.8901L94.0241 28.9452L93.9979 21.5918C93.9717 17.5434 93.8931 14.4863 93.8146 14.7893C93.7622 15.0922 93.2123 18.3696 92.61 22.0875L91.5363 28.835H86.0632L85.199 22.7761C84.7538 19.4437 84.3086 16.4693 84.2563 16.1663C84.1253 15.5604 84.073 17.1027 83.9944 24.1531L83.942 28.835L80.4853 28.9176L77.0024 29.0002V14.5139ZM102.404 14.4863V0.0550812L108.636 0.110162L114.843 0.192784L114.921 3.71798L115 7.21563H112.25C110.731 7.21563 109.474 7.29825 109.422 7.43596C109.37 7.54612 109.37 8.39988 109.422 9.3638L109.527 11.0713H114.45V17.984L112.303 17.9565C111.098 17.9289 109.972 17.9289 109.815 17.9289C109.579 17.9565 109.474 18.5624 109.474 20.022V22.0875H114.974V29.0002L108.689 28.9452L102.404 28.9176V14.4863Z" fill="#F9F9F9"/>
</svg>
